<?xml version="1.0" standalone="no"?>
<!DOCTYPE svg PUBLIC "-//W3C//DTD SVG 20010904//EN"
 "http://www.w3.org/TR/2001/REC-SVG-20010904/DTD/svg10.dtd">
<svg version="1.0" xmlns="http://www.w3.org/2000/svg"
 width="512.000000pt" height="512.000000pt" viewBox="0 0 512.000000 512.000000"
 preserveAspectRatio="xMidYMid meet">

<g transform="translate(0.000000,512.000000) scale(0.100000,-0.100000)"
fill="#000000" stroke="none">
<path d="M3635 4865 c-27 -13 -56 -24 -63 -24 -7 -1 -31 -10 -55 -20 -41 -19
-462 -183 -882 -344 -260 -99 -313 -120 -340 -133 -16 -7 -55 -22 -85 -33
-113 -40 -147 -53 -334 -127 -233 -91 -462 -181 -616 -241 -63 -24 -149 -58
-190 -74 -226 -88 -416 -159 -427 -159 -10 0 -13 -72 -13 -354 l0 -353 -150
-53 c-82 -29 -153 -56 -159 -59 -12 -8 -26 -857 -15 -864 5 -2 36 -8 69 -11
33 -4 67 -9 75 -11 8 -2 44 -6 79 -10 35 -3 67 -7 70 -9 3 -2 29 -7 56 -10
102 -13 102 -13 109 -59 3 -23 8 -69 11 -102 3 -33 8 -73 10 -90 2 -16 7 -59
10 -95 3 -36 8 -75 11 -87 4 -20 -12 -30 -151 -99 l-155 -77 5 -31 c3 -17 12
-105 20 -196 9 -91 17 -185 20 -210 10 -93 26 -268 32 -338 3 -40 9 -74 12
-76 4 -3 114 -7 246 -11 378 -11 380 -11 378 1 -1 6 30 33 70 60 40 27 80 56
90 65 9 9 30 22 45 30 15 8 52 32 82 55 30 23 73 53 95 67 22 15 63 42 90 62
28 20 82 57 120 83 39 26 72 49 75 53 7 8 185 130 223 153 18 10 44 28 59 40
14 11 48 36 75 54 26 18 86 60 133 93 47 34 95 65 107 69 11 5 24 14 28 19 3
6 43 36 88 66 103 69 309 211 322 222 6 5 46 33 90 63 44 30 82 57 85 60 5 5
46 33 81 55 9 5 43 29 75 51 153 108 195 137 274 191 47 31 87 60 90 63 5 6
196 139 244 170 13 8 43 29 67 46 113 79 150 104 229 159 47 32 99 68 115 79
17 12 32 23 35 27 3 3 23 16 45 29 22 13 45 28 50 33 26 21 133 95 153 106 23
12 24 15 17 109 -4 53 -9 104 -10 112 -1 8 -6 53 -11 100 -4 47 -8 90 -9 95 0
6 -5 57 -9 114 l-9 104 -71 -6 c-39 -3 -107 -9 -152 -13 -80 -7 -81 -6 -87 17
-7 29 -30 204 -31 239 -1 26 1 27 279 171 33 17 61 32 62 34 2 1 6 142 9 313
l6 311 -153 3 -154 3 -3 153 c-2 110 -6 154 -15 157 -11 4 -137 15 -342 30
-38 3 -95 7 -125 10 -44 3 -65 0 -105 -20z m-917 -1583 l2 -308 -133 -74 c-72
-41 -168 -93 -212 -116 -44 -23 -111 -60 -150 -83 -38 -23 -115 -64 -170 -92
-55 -28 -114 -59 -132 -70 l-33 -21 0 334 0 333 408 202 c224 112 410 203 413
203 3 0 6 -139 7 -308z"/>
</g>
</svg>
